<?xml version="1.0" encoding="utf-8"?>
<!-- Generator: Adobe Illustrator 16.0.0, SVG Export Plug-In . SVG Version: 6.00 Build 0)  -->
<!DOCTYPE svg PUBLIC "-//W3C//DTD SVG 1.1//EN" "http://www.w3.org/Graphics/SVG/1.1/DTD/svg11.dtd">
<svg version="1.1" id="Layer_1" xmlns="http://www.w3.org/2000/svg" xmlns:xlink="http://www.w3.org/1999/xlink" x="0px" y="0px"
	 width="257px" height="256.999px" viewBox="0 0 257 256.999" enable-background="new 0 0 257 256.999" xml:space="preserve">
<path fill="#FFFFFF" d="M23.874,195.714v-7.091c-7.145-7.522-12.991-20.414-13.813-30.7c-0.153-1.939,0.52-3.979,1.758-5.319
	c0.995-1.076,2.313-1.671,3.715-1.671c0.129,0,0.257,0.005,0.386,0.014c-0.623-1.696-1.224-3.445-1.717-5.277
	c-0.082-0.306-0.179-0.637-0.283-0.993c-0.884-3.035-2.364-8.114,0.62-11.554c0.972-1.107,2.285-1.71,3.707-1.71
	c0.388,0,0.771,0.042,1.158,0.127c-0.963-1.01-1.826-2.391-2.503-4.277c-0.825-2.319-0.477-5.393,0.868-7.656
	c0.384-0.643,0.804-1.208,1.21-1.755c0.168-0.226,0.336-0.455,0.492-0.674c-0.186-0.166-0.373-0.328-0.514-0.445
	c-0.392-0.335-0.762-0.653-1.096-1.008c-4.187-4.562-4.837-11.439-1.637-17.138c1.799-3.213,4.711-5.21,7.876-5.435
	c0.175-5.025,1.119-10.316,5.453-14.065c1.617-1.403,3.52-2.147,5.497-2.147c2.057,0,4.149,0.822,6.017,2.301
	c0.594-0.586,1.26-1.152,2.017-1.721c1.251-0.938,2.578-1.394,4.058-1.394c0.426,0,0.839,0.041,1.248,0.089
	c0.1,0.011,0.197,0.026,0.296,0.034c1.026-0.625,1.887-1.553,2.879-2.623c1.824-1.964,4.095-4.411,8.053-5.172
	c0.638-0.125,1.28-0.188,1.899-0.188c2.301,0,4.349,0.858,5.921,2.48c0.043,0.044,0.087,0.089,0.128,0.136
	c0.477-1.132,1.159-2.193,2.048-3.191c1.665-1.87,3.512-2.84,5.489-2.88c1.574-9.521,4.955-14.339,10.078-14.339
	c0.413,0,0.835,0.036,1.258,0.107c1.024-2.789,3.305-5.166,5.506-6.504c0.953-0.585,1.976-0.883,3.031-0.883
	c2.507,0,4.744,1.722,5.697,4.385c0.372,1.021,0.314,2.088,0.134,4.614c-0.044,0.631-0.111,1.584-0.149,2.498
	c0.33,0.038,0.654,0.104,0.968,0.197c-0.049-0.279-0.089-0.527-0.117-0.74c-0.539-3.808,0.542-8.265,2.889-11.917
	c3.081-4.784,6.494-5.497,8.255-5.497c2.842,0,5.277,1.687,6.751,4.466c0.955-0.365,1.975-0.628,3.06-0.628
	c1.535,0,4.364,0.572,6.048,4.416c0.962,2.186,1.454,5.344-0.587,9.063c1.066,0.819,1.991,1.915,2.398,3.408
	c0.223,0.817,0.267,1.656,0.128,2.514c0.583-0.248,1.226-0.381,1.891-0.381c1.176,0,2.284,0.437,3.112,1.217
	c0.179,0.028,0.506,0.062,1.057,0.062c0.737,0,1.536-0.055,2.34-0.105c0.924-0.06,1.881-0.12,2.813-0.12
	c1.636,0,2.885,0.197,3.931,0.621c0.951,0.393,1.77,0.957,2.454,1.69l52.864-20.988l18.298,59.584
	c0.669-1.225,1.664-2.363,3.229-2.991c0.418-0.179,0.929-0.282,1.454-0.282c1.642,0,2.917,1.011,3.565,1.956
	c1.628,2.292,1.552,5.068,1.499,7.096l-0.058,2.86c-0.036,1.641-0.07,3.23-0.064,4.802c1.507,0.205,2.814,0.906,3.819,2.06
	c2.338,2.678,2.406,7.178,1.874,12.222c3.731,2.749,3.087,7.45,2.838,9.256c-0.161,1.182-0.395,2.324-0.652,3.438
	c0.166-0.02,0.333-0.03,0.498-0.03c1.399,0,2.736,0.721,3.575,1.929c3.043,4.449,1.557,10.654,0.361,15.638
	c-0.271,1.137-0.529,2.208-0.67,3.036c-0.125,0.738-0.265,1.484-0.405,2.246c-0.106,0.584-0.216,1.17-0.32,1.757
	c0.631-0.303,1.296-0.458,1.96-0.458c2.664,0,4.627,2.234,5.124,5.826c0.479,3.502-0.457,7.476-2.572,10.908
	c-3.407,5.586-9.737,11.566-17.263,11.566c-0.251,0-0.503-0.004-0.753-0.018l-69.695,29.455L23.874,195.714z M23.322,133.853
	c0.162,0.15,0.324,0.309,0.49,0.475c0.021-0.046,0.04-0.092,0.062-0.137v-0.208C23.69,133.945,23.506,133.901,23.322,133.853z"/>
<g>
	<path fill="#006838" d="M146.591,67.26l-2.433,0.967c-0.623-3.435-5.756-1.7-8.127-1.064c-1.516,0.416-2.554-0.013-3.495-0.843
		c-1.21,2.064-2.139,2.835-4.851,2.347c-3.35-0.599-6.76,1.296-9.925-0.244c-1.466-0.708-1.345-3.423-0.293-4.4
		c1.1-1.015,2.199-1.601,3.593-2.188c1.857-0.77,4.326-3.409,1.088-4.301c-0.672-0.148-1.32-0.355-1.943-0.636
		c-0.806-0.306-1.271-1.357-0.538-2.041c2.078-1.906,3.886-3.471,3.533-6.673c-0.319-2.787-5.439,0.354-6.625,0.623
		c-0.782,0.185-1.527-0.366-1.553-1.173c-0.108-4.999-4.325-5.536-6.269-1.001c-0.759,1.759-1.699,4.008-1.491,6.001
		c0.342,3.079,1.088,6.123,1.209,9.225c0.16,4.23-0.512,9.021-5.669,8.996c-0.856-0.013-1.295-0.782-1.174-1.553
		c0.355-1.722,0.453-3.482,0.306-5.242c-0.195-1.381-0.807-2.518-1.81-3.423c-0.524,0.662-0.696,0.783-1.403,1.259
		c-1.419,0.942-2.86-0.525-3.754-1.332c-1.025-0.954-0.77-3.386-0.599-4.607c0.221-1.576,0.588-3.213,0.66-4.791
		c0.184-3.765-3.227,2.028-3.274,3.02c-0.062,1.331-0.808,7.32-3.851,5.182c-0.574-0.391-1.014-0.709-1.332-1.357
		c-1.453-3.055-4.437,2.639-4.729,3.569c-1.112,3.593-1.43,7.222-1.648,10.95c-0.05,0.94-1.37,1.772-2.079,0.867
		c-2.223-2.822-7.186-3.507-5.388,3.251c0.059,0.208,0.109,0.415,0.182,0.623c4.376-0.793,8.299-0.134,8.114,5.231
		c4.901,0.697,9.301,3.079,9.117,7.172l-2.249,0.905c1.26-4.105-4.19-5.573-7.613-5.877c-0.782-0.061-1.149-1.125-1.051-1.785
		c0.611-3.923-2.347-4.254-5.67-3.557c-0.796,0.172-1.601,0.392-2.384,0.648c-2.152,0.684-4.118,1.553-5.047,1.906
		c-0.99,0.391-1.394-1.368-1.187-1.979c-1.906-5.597-4.447-6.991-7.602-4.179c-0.77,0.647-1.502,1.32-2.211,2.016
		c-0.953,0.891-1.748,2.554-2.847,3.202c-1.639,0.94-1.846,0.672-3.558,0.672c-3.251,0-5.327,3.288-6.428,5.78
		c-0.391,0.881-1.271-0.133-1.467-0.561C37.09,78.455,30.16,85.25,29.55,91.091c-0.293,2.898-0.306,5.757-0.293,8.665
		c0,0.806-0.709,1.076-1.247,0.477c-2.836-3.176-6.881,0-7.92,2.872c-2.981,8.263,0.635,7.652,3.397,10.682
		c0.685,0.733,1.896,1.931,1.798,3.08c-0.185,2.139-1.358,3.361-2.433,5.157c-1.663,2.787,0.807,7.076,4.093,6.563
		c0.588-0.098,1.149-0.17,1.712-0.233l-1.319,0.881v1.503c-3.202,0.134-5.622-0.317-7.174-4.644
		c-0.514-1.442-0.184-3.421,0.585-4.718c0.76-1.271,1.981-2.517,2.519-3.886c0.623-1.588-2.005-3.202-2.872-4.13
		c-3.287-3.581-3.496-8.897-1.148-13.078c1.931-3.445,5.438-4.706,8.298-2.798c-0.061-5.561-0.158-11.939,4.277-15.778
		c3.507-3.043,7.43-0.207,9.521,2.934c0.941-1.797,2.054-3.02,3.825-4.352c2.053-1.54,3.251,0.11,5.107-0.953
		c3.839-2.212,5.23-6.563,9.998-7.479c4.705-0.917,6.722,3.348,6.598,7.162c1.149-0.415,2.409-0.844,3.679-1.198
		c-0.646-2.713-0.572-5.328,1.651-7.822c2.175-2.444,4.008-2.017,5.779-0.403c0.575-5.975,2.385-17.133,8.348-15.496
		c0.709,0.196,1.368,0.673,1.712,1.344c1.344,2.652,1.232-0.696,1.319-2.163c0.157-2.518,2.357-5.01,4.388-6.244
		c1.697-1.04,3.14,0.244,3.665,1.71c0.465,1.271-1.577,12.184,1.479,9.777c1.528-1.197,3.618,0.513,4.266,1.931
		c1.321,2.848,1.43,4.949,1.101,7.639c3.679-1.895,1.076-11.598,0.685-14.421c-0.453-3.202,0.635-6.869,2.371-9.569
		c4.117-6.392,9.129-4.351,10.008,1.87c2.97-1.271,6.16-3.838,8.019,0.403c1.502,3.423-0.368,6.514-2.604,8.886
		c3.276,1.247,6.159,2.787,2.896,6.88c-1.038,1.296-3.507,1.7-4.839,2.468c-0.367,2.054,0.342,2.628,2.138,1.735
		c0.514-0.11,1.04-0.231,1.554-0.341c4.057-0.893,4.228,2.248,6.757-2.334c0.354-0.66,1.418-0.856,1.919-0.257
		c1.675,2.016,8.298-0.085,11.134,1.063C145.563,64.999,146.187,66.038,146.591,67.26z"/>
</g>
<path fill="#8B5E3C" d="M221.384,120.459c0-0.012,0-0.012,0-0.012l-1.308-4.278L198.7,46.57L146.591,67.26l-2.433,0.967
	L90.141,89.673l-2.249,0.905l-6.598,2.616l-52.637,35.16l-1.319,0.881v63.672l128.871,27.302l68.963-29.147v-58.295L221.384,120.459
	z M221.702,188.762l-65.848,27.827L30.796,190.095v-59.016l52.109-34.806l113.584-45.097l25.213,82.114V188.762z"/>
<path fill="#9D2743" d="M196.489,51.176L82.905,96.273l-52.109,34.806v59.016l125.059,26.494l65.848-27.827v-55.471L196.489,51.176z
	 M47.428,188.629l-11.743-2.495v-13.282l11.743,0.646V188.629z M47.428,168.609l-11.743-0.659v-13.76l11.743-1.225V168.609z
	 M47.428,148.042l-11.743,1.234v-15.044l11.743-3.239V148.042z M68.462,193.075l-16.146-3.42v-15.888l16.146,0.905V193.075z
	 M68.462,169.771l-16.146-0.893v-16.425l16.146-1.688V169.771z M68.462,145.843l-16.146,1.687v-17.892l16.146-4.461V145.843z
	 M91.987,198.062l-18.637-3.945v-19.178l18.637,1.042V198.062z M91.987,171.078l-18.637-1.027v-19.798l18.637-1.955V171.078z
	 M91.987,143.386l-18.637,1.943v-21.51l18.637-5.145V143.386z M120.828,204.16l-23.953-5.071v-22.841l23.953,1.331V204.16z
	 M120.828,172.679l-23.953-1.318v-23.576l23.953-2.504V172.679z M120.828,140.366l-23.953,2.505v-25.553l23.953-6.624V140.366z
	 M153.165,211.019l-27.447-5.82v-27.337l27.447,1.516V211.019z M153.165,174.477l-27.447-1.516v-28.194l27.447-2.873V174.477z
	 M153.165,136.982l-27.447,2.871V109.35l27.447-7.589V136.982z M154.277,96.383L47.173,125.995l37.787-25.273l101.275-40.219
	L154.277,96.383z M192.48,60.844v35.968c-1.406,0.342-2.726,1.051-3.936,2.101l-9.667-22.816L192.48,60.844z M182.654,199.945
	l-24.601,10.399v-31.09l24.601-2.713V199.945z M182.654,171.617l-24.601,2.712v-32.141l24.601,5.146V171.617z M182.654,142.334
	l-24.601-5.145v-34.5l24.601,13.566V142.334z M182.937,110.828l-23.464-12.942l15.813-17.756l9.862,23.292
	C184.06,105.598,183.302,108.127,182.937,110.828z M201.291,192.075l-13.748,5.805v-83.067c0-3.765,0.879-7.406,2.421-10.009
	c1.281-2.139,2.896-3.373,4.448-3.373c0.109,0,0.231,0.012,0.28,0.012c3.02,0.282,5.78,4.852,6.44,10.645
	c0.099,0.867,0.158,1.784,0.158,2.725V192.075z M197.368,97.104V70.73l10.316,33.596l-2.629,2.567
	C203.602,102.005,200.828,98.437,197.368,97.104z M209.31,109.583l5.841,19.016l-8.971-4.95v-8.836c0-0.709-0.023-1.417-0.085-2.102
	L209.31,109.583z M216.813,185.511l-10.633,4.497v-16.083l10.633-1.171V185.511z M216.813,167.829l-10.633,1.172v-16.768
	l10.633,2.224V167.829z M216.813,149.46l-10.633-2.225v-18.001l10.633,5.866V149.46z"/>
<path fill="#DFBE75" d="M201.133,112.088c-0.66-5.793-3.421-10.364-6.44-10.645c-0.05,0-0.171-0.012-0.28-0.012
	c-1.554,0-3.167,1.234-4.448,3.373c-1.542,2.603-2.421,6.244-2.421,10.009v83.067l13.748-5.805v-77.263
	C201.291,113.872,201.231,112.955,201.133,112.088z M189.779,125.689l3.581,1.625v35.392l-3.581-0.048V125.689z M193.47,190.838
	l-3.69,1.237v-24.491l3.69-0.196V190.838z M191.21,115.558c0-4.413,1.661-7.993,3.715-7.993c2.053,0,3.715,3.58,3.715,7.993
	c0,4.412-1.662,7.993-3.715,7.993C192.871,123.551,191.21,119.97,191.21,115.558z M199.471,188.64l-3.446,1.224v-22.55l3.446-0.182
	V188.64z M199.594,162.805l-3.569-0.048v-34.232l3.569,1.612V162.805z"/>
<polygon fill="#9D2743" points="193.36,127.315 193.36,162.707 189.779,162.659 189.779,125.689 "/>
<polygon fill="#9D2743" points="199.594,130.137 199.594,162.805 196.024,162.757 196.024,128.525 "/>
<polygon fill="#9D2743" points="199.471,167.132 199.471,188.64 196.024,189.863 196.024,167.313 "/>
<ellipse fill="#9D2743" cx="194.925" cy="115.558" rx="3.715" ry="7.993"/>
<polygon fill="#9D2743" points="193.47,167.388 193.47,190.838 189.779,192.075 189.779,167.584 "/>
<path fill="#85BB45" d="M27.338,147.271v36.932c-4.278-4.79-6.906-11.169-9.155-17.061c-0.561-1.441-1.025-2.908-1.502-4.374
	c-0.256-0.83-1.603-8.092,2.042-3.153c1.953,2.64,2.553,6.1,4.557,8.798c0.514,0.698,1.81,0.905,1.931-0.231
	c0.868-7.967-2.493-14.858-5.084-22.192c-0.758-2.139-1.246-4.339-1.527-6.6c-0.487-3.923,3.239,1.295,3.324,1.393
	c1.466,1.907,2.773,3.936,4.105,5.94C26.311,147.149,26.885,147.381,27.338,147.271z"/>
<path fill="#006838" d="M18.599,139.389c0.281,2.261,0.771,4.461,1.527,6.6c2.591,7.334,5.952,14.226,5.084,22.192
	c-0.121,1.137-1.417,0.93-1.931,0.231c-2.004-2.698-2.604-6.158-4.557-8.798c-3.645-4.938-2.298,2.323-2.043,3.153
	c0.478,1.466,0.942,2.933,1.503,4.374c2.249,5.892,4.877,12.271,9.155,17.061v2.995c-7.188-6.905-13.041-19.749-13.823-29.55
	c-0.134-1.688,1.076-4.228,3.153-2.862c3.581,2.373,4.717,5.989,6.489,9.472c-0.316-6.891-3.801-12.783-5.609-19.491
	c-0.673-2.506-2.396-7.063-0.391-9.374c2.017-2.298,6.318,3.593,8.812,7.394c0.037-2.493,0.013-4.9,1.123-7.308
	c0.062-0.134,0.146-0.245,0.246-0.318v12.111c-0.453,0.109-1.027-0.122-1.31-0.549c-1.332-2.005-2.64-4.034-4.105-5.94
	C21.838,140.685,18.111,135.466,18.599,139.389z"/>
<path fill="#849547" d="M241.597,174.72c-0.293,2.995-2.284,5.719-4.118,7.968c-3.042,3.74-7.748,6.416-12.307,5.611v-55.533
	l-3.788-12.307c0-0.012,0-0.012,0-0.012c0.537-3.483,0.049-7.064,0.794-10.596c1.417-6.661,1.54-3.531,1.49-0.011
	c-0.061,3.58-0.159,7.099,0.16,10.68c0.061,0.661,0.574,1.663,1.381,1.222c5.485-2.957,4.253,4.167,3.702,7.382
	c-0.5,3.006-0.819,5.756-0.66,8.812c0.05,0.795,1.198,2.077,1.688,0.831c0.499-1.271,2.7-6.171,2.26-1.576
	c-0.318,3.214-1.431,6.307-2.091,9.459c-0.892,4.203-1.259,9.129,0.428,13.151c0.185,0.427,0.758,0.952,1.235,0.598
	c2.407-1.808,3.104-4.559,3.825-7.368c0.525-2.005,1.967-6.283,1.502-1.798c-0.109,1.112-0.378,2.225-0.574,3.324
	c-1.232,6.599-3.311,13.956-2.443,20.701c0.551,4.266,3.288,2.788,5.084,0.258C239.936,174.438,242.036,170.246,241.597,174.72z"/>
<path fill="#006838" d="M241.315,181.002c-3.384,5.548-9.716,10.949-16.144,9.754v-2.457c4.559,0.805,9.265-1.871,12.307-5.611
	c1.834-2.249,3.825-4.973,4.118-7.968c0.439-4.474-1.661-0.281-2.432,0.795c-1.796,2.53-4.533,4.008-5.084-0.258
	c-0.867-6.745,1.211-14.103,2.443-20.701c0.196-1.1,0.465-2.212,0.574-3.324c0.465-4.485-0.977-0.207-1.502,1.798
	c-0.721,2.81-1.418,5.561-3.825,7.368c-0.478,0.354-1.051-0.171-1.235-0.598c-1.687-4.022-1.317-8.948-0.428-13.151
	c0.66-3.152,1.772-6.245,2.091-9.459c0.44-4.595-1.76,0.306-2.26,1.576c-0.49,1.246-1.639-0.036-1.688-0.831
	c-0.159-3.056,0.16-5.806,0.661-8.812c0.55-3.214,1.785-10.339-3.703-7.382c-0.807,0.441-1.32-0.562-1.381-1.222
	c-0.319-3.581-0.221-7.1-0.158-10.68c0.049-3.52-0.075-6.649-1.492,0.011c-0.745,3.532-0.257,7.113-0.794,10.596l-1.308-4.278
	c0.158-3.092,0.012-6.257,0.952-9.3c0.514-1.638,0.881-4.363,2.702-5.096c0.317-0.134,0.709,0.184,0.867,0.415
	c1.137,1.602,0.905,3.912,0.879,5.77c-0.061,3.678-0.207,7.332,0,10.999c7.188-2.97,6.137,6.416,5.184,13.369
	c0.476-0.549,1.014-0.793,1.576-0.427c2.102,1.357,2.016,3.851,1.698,6.16c-0.501,3.654-1.809,7.125-2.272,10.781
	c-0.27,2.063-0.624,4.203-0.453,6.292c1.197,1.211,1.857,1.038,1.967-0.525c0.6-1.968,1.235-8.641,3.899-9.191
	c0.354-0.072,0.672,0.147,0.868,0.43c2.773,4.057-0.16,11.854-0.881,16.119c-0.696,4.081-1.832,8.712-1.295,12.868
	c0.123,0.978,4.56-4.557,5.28-5.046c1.563-1.053,2.235,1.723,2.357,2.602C243.809,175.332,242.843,178.522,241.315,181.002z"/>
<path fill="#85BB45" d="M144.158,68.227L90.141,89.674c0.184-4.095-4.217-6.476-9.117-7.173c0.185-5.366-3.738-6.024-8.114-5.231
	c-0.073-0.208-0.123-0.415-0.183-0.623c-1.797-6.759,3.165-6.074,5.389-3.251c0.709,0.905,2.029,0.073,2.079-0.867
	c0.219-3.728,0.536-7.356,1.648-10.95c0.293-0.929,3.276-6.624,4.729-3.569c0.318,0.648,0.758,0.966,1.332,1.357
	c3.043,2.138,3.789-3.851,3.851-5.182c0.048-0.991,3.458-6.783,3.274-3.02c-0.072,1.576-0.439,3.215-0.66,4.792
	c-0.171,1.222-0.427,3.653,0.599,4.606c0.894,0.807,2.335,2.274,3.754,1.332c0.707-0.476,0.879-0.599,1.403-1.259
	c1.003,0.905,1.614,2.042,1.81,3.423c0.147,1.76,0.05,3.52-0.306,5.243c-0.123,0.77,0.317,1.539,1.174,1.552
	c5.157,0.025,5.829-4.766,5.669-8.996c-0.121-3.103-0.867-6.146-1.21-9.227c-0.207-1.992,0.733-4.24,1.492-6.001
	c1.943-4.533,6.16-3.996,6.269,1.003c0.025,0.807,0.771,1.357,1.553,1.173c1.186-0.268,6.306-3.409,6.623-0.623
	c0.354,3.202-1.453,4.767-3.531,6.673c-0.732,0.683-0.268,1.735,0.538,2.041c0.623,0.282,1.271,0.489,1.943,0.636
	c3.238,0.892,0.77,3.532-1.089,4.301c-1.393,0.587-2.493,1.173-3.592,2.188c-1.052,0.977-1.173,3.69,0.293,4.399
	c3.165,1.541,6.575-0.354,9.925,0.245c2.712,0.489,3.641-0.281,4.851-2.347c0.941,0.83,1.979,1.259,3.494,0.844
	C138.402,66.527,143.535,64.792,144.158,68.227z"/>
<path fill="#5B9853" d="M87.892,90.578l-6.599,2.616l-52.636,35.16c-0.563,0.063-1.124,0.135-1.712,0.233
	c-3.286,0.513-5.756-3.776-4.093-6.563c1.074-1.796,2.248-3.018,2.433-5.157c0.096-1.149-1.113-2.347-1.798-3.08
	c-2.763-3.03-6.379-2.419-3.397-10.682c1.039-2.872,5.083-6.048,7.92-2.872c0.538,0.599,1.247,0.331,1.247-0.476
	c-0.014-2.908,0-5.769,0.292-8.665c0.61-5.842,7.54-12.637,11.28-4.228c0.195,0.427,1.076,1.441,1.467,0.562
	c1.1-2.493,3.177-5.781,6.428-5.781c1.711,0,1.919,0.269,3.558-0.672c1.099-0.648,1.894-2.311,2.847-3.202
	c0.709-0.697,1.441-1.369,2.211-2.017c3.154-2.811,5.695-1.417,7.602,4.179c-0.207,0.611,0.196,2.372,1.187,1.98
	c0.929-0.354,2.896-1.222,5.047-1.906c0.783-0.256,1.588-0.476,2.384-0.648c3.323-0.697,6.281-0.366,5.67,3.557
	c-0.099,0.66,0.269,1.724,1.051,1.785C83.701,85.005,89.151,86.473,87.892,90.578z"/>
<polygon fill="none" stroke="#FFFFFF" stroke-width="2.5" stroke-miterlimit="10" points="155.854,216.589 221.702,188.762 
	221.702,133.291 196.489,51.176 82.905,96.273 30.796,131.079 30.796,190.095 "/>
</svg>
