<?xml version="1.0" encoding="utf-8"?>
<!-- Generator: Adobe Illustrator 16.0.0, SVG Export Plug-In . SVG Version: 6.00 Build 0)  -->
<!DOCTYPE svg PUBLIC "-//W3C//DTD SVG 1.1//EN" "http://www.w3.org/Graphics/SVG/1.1/DTD/svg11.dtd">
<svg version="1.1" id="Layer_1" xmlns="http://www.w3.org/2000/svg" xmlns:xlink="http://www.w3.org/1999/xlink" x="0px" y="0px"
	 width="129px" height="128.999px" viewBox="0 0 129 128.999" enable-background="new 0 0 129 128.999" xml:space="preserve">
<path fill="#FFFFFF" d="M12.391,97.976v-3.531c-3.559-3.747-6.471-10.167-6.88-15.29c-0.076-0.966,0.259-1.982,0.876-2.65
	c0.495-0.536,1.152-0.832,1.851-0.832c0.063,0,0.128,0.002,0.191,0.007c-0.31-0.845-0.609-1.716-0.854-2.628
	c-0.041-0.152-0.089-0.317-0.142-0.495c-0.439-1.511-1.178-4.041,0.31-5.754C8.226,66.25,8.88,65.95,9.588,65.95
	c0.193,0,0.384,0.021,0.577,0.063c-0.479-0.503-0.91-1.191-1.247-2.13c-0.411-1.155-0.237-2.686,0.433-3.813
	c0.191-0.32,0.4-0.602,0.603-0.874c0.084-0.112,0.168-0.227,0.245-0.335c-0.092-0.083-0.186-0.164-0.256-0.222
	c-0.194-0.167-0.379-0.325-0.546-0.502c-2.085-2.271-2.408-5.697-0.814-8.535c0.896-1.6,2.346-2.595,3.922-2.707
	c0.088-2.503,0.558-5.138,2.717-7.005c0.805-0.699,1.753-1.069,2.737-1.069c1.024,0,2.066,0.41,2.997,1.146
	c0.296-0.292,0.627-0.574,1.004-0.857c0.623-0.467,1.284-0.694,2.021-0.694c0.212,0,0.417,0.021,0.621,0.044
	c0.05,0.005,0.099,0.013,0.147,0.017c0.511-0.311,0.939-0.773,1.434-1.306c0.909-0.979,2.04-2.197,4.011-2.576
	c0.317-0.062,0.638-0.093,0.946-0.093c1.146,0,2.166,0.427,2.949,1.235c0.021,0.021,0.043,0.044,0.063,0.068
	c0.237-0.564,0.577-1.092,1.02-1.589c0.829-0.932,1.749-1.415,2.734-1.435c0.784-4.742,2.468-7.142,5.02-7.142
	c0.205,0,0.416,0.018,0.626,0.054c0.511-1.389,1.646-2.573,2.742-3.24c0.475-0.291,0.984-0.44,1.51-0.44
	c1.249,0,2.363,0.858,2.838,2.184c0.186,0.509,0.156,1.04,0.066,2.298c-0.021,0.314-0.056,0.789-0.074,1.244
	c0.164,0.019,0.326,0.052,0.482,0.098c-0.024-0.139-0.045-0.263-0.059-0.369c-0.269-1.897,0.27-4.117,1.438-5.936
	c1.534-2.382,3.234-2.738,4.111-2.738c1.415,0,2.629,0.84,3.362,2.225c0.476-0.182,0.983-0.313,1.524-0.313
	c0.764,0,2.173,0.285,3.012,2.199c0.479,1.089,0.725,2.662-0.292,4.514c0.531,0.408,0.991,0.954,1.194,1.697
	c0.11,0.407,0.133,0.825,0.063,1.252c0.29-0.124,0.61-0.19,0.941-0.19c0.586,0,1.138,0.217,1.551,0.606
	c0.089,0.014,0.252,0.031,0.526,0.031c0.367,0,0.765-0.027,1.165-0.052c0.46-0.03,0.937-0.06,1.4-0.06
	c0.815,0,1.438,0.098,1.958,0.309c0.474,0.196,0.881,0.477,1.223,0.842l26.329-10.454l9.113,29.676
	c0.333-0.61,0.828-1.177,1.607-1.49c0.209-0.089,0.463-0.141,0.725-0.141c0.817,0,1.453,0.503,1.775,0.974
	c0.812,1.142,0.773,2.524,0.747,3.534l-0.029,1.424c-0.018,0.817-0.034,1.609-0.031,2.392c0.75,0.102,1.401,0.452,1.901,1.026
	c1.165,1.333,1.199,3.575,0.934,6.087c1.858,1.369,1.538,3.71,1.414,4.61c-0.081,0.588-0.197,1.157-0.325,1.712
	c0.083-0.01,0.166-0.015,0.248-0.015c0.697,0,1.362,0.359,1.78,0.961c1.516,2.216,0.775,5.307,0.181,7.788
	c-0.136,0.566-0.264,1.101-0.334,1.513c-0.063,0.367-0.132,0.739-0.202,1.118c-0.053,0.291-0.107,0.583-0.159,0.875
	c0.314-0.15,0.646-0.228,0.976-0.228c1.327,0,2.305,1.112,2.553,2.901c0.238,1.744-0.228,3.724-1.281,5.434
	c-1.697,2.781-4.85,5.761-8.598,5.761c-0.125,0-0.251-0.002-0.375-0.009l-34.712,14.67L12.391,97.976z M12.116,67.166
	c0.08,0.075,0.161,0.154,0.244,0.237c0.01-0.023,0.02-0.046,0.03-0.068V67.23C12.299,67.211,12.207,67.19,12.116,67.166z"/>
<g>
	<path fill="#006838" d="M73.51,33.999l-1.211,0.481c-0.311-1.711-2.867-0.847-4.048-0.53c-0.755,0.207-1.271-0.006-1.741-0.42
		c-0.603,1.028-1.064,1.412-2.415,1.169c-1.669-0.298-3.367,0.646-4.943-0.122c-0.73-0.353-0.67-1.705-0.146-2.191
		c0.548-0.505,1.096-0.797,1.79-1.09c0.925-0.383,2.154-1.698,0.542-2.142c-0.335-0.074-0.658-0.177-0.968-0.317
		c-0.401-0.152-0.633-0.676-0.269-1.016c1.035-0.949,1.936-1.729,1.76-3.323c-0.159-1.388-2.709,0.176-3.3,0.31
		c-0.39,0.092-0.761-0.182-0.773-0.584c-0.054-2.489-2.154-2.757-3.122-0.499c-0.378,0.876-0.846,1.996-0.742,2.989
		c0.17,1.533,0.542,3.049,0.602,4.595c0.08,2.106-0.255,4.493-2.823,4.48c-0.427-0.006-0.645-0.39-0.584-0.773
		c0.177-0.858,0.226-1.734,0.151-2.611c-0.097-0.688-0.401-1.254-0.9-1.705c-0.262,0.33-0.348,0.39-0.699,0.627
		c-0.707,0.469-1.425-0.261-1.87-0.663c-0.511-0.475-0.383-1.687-0.298-2.295c0.11-0.785,0.293-1.601,0.329-2.386
		c0.091-1.875-1.607,1.01-1.631,1.504c-0.031,0.663-0.402,3.646-1.918,2.581c-0.286-0.195-0.505-0.354-0.663-0.676
		c-0.725-1.521-2.21,1.314-2.356,1.778c-0.554,1.79-0.712,3.597-0.82,5.454c-0.025,0.468-0.683,0.882-1.036,0.432
		c-1.106-1.406-3.578-1.747-2.683,1.619c0.028,0.104,0.054,0.207,0.09,0.31c2.18-0.395,4.134-0.067,4.042,2.605
		c2.44,0.347,4.632,1.534,4.54,3.572l-1.12,0.451c0.628-2.044-2.087-2.775-3.791-2.927c-0.39-0.03-0.573-0.56-0.523-0.889
		c0.304-1.954-1.169-2.119-2.824-1.771c-0.396,0.086-0.797,0.195-1.188,0.323c-1.072,0.341-2.051,0.773-2.514,0.949
		c-0.493,0.195-0.693-0.681-0.591-0.985c-0.949-2.788-2.215-3.482-3.786-2.082c-0.383,0.322-0.748,0.657-1.101,1.004
		c-0.475,0.444-0.871,1.272-1.418,1.595c-0.816,0.468-0.919,0.334-1.772,0.334c-1.619,0-2.652,1.638-3.201,2.879
		c-0.194,0.438-0.633-0.066-0.73-0.279c-1.862-4.188-5.313-0.804-5.617,2.105c-0.146,1.443-0.152,2.867-0.146,4.315
		c0,0.401-0.353,0.536-0.621,0.237c-1.412-1.582-3.427,0-3.944,1.43c-1.485,4.116,0.316,3.811,1.692,5.32
		c0.341,0.365,0.943,0.961,0.896,1.534c-0.093,1.065-0.677,1.674-1.212,2.568c-0.828,1.388,0.401,3.524,2.038,3.269
		c0.293-0.048,0.573-0.085,0.853-0.116l-0.656,0.438v0.749c-1.596,0.067-2.801-0.158-3.573-2.313
		c-0.256-0.718-0.092-1.704,0.291-2.35c0.379-0.633,0.987-1.253,1.255-1.936c0.31-0.791-0.999-1.595-1.431-2.057
		c-1.638-1.783-1.741-4.431-0.572-6.513c0.962-1.716,2.709-2.344,4.133-1.394c-0.03-2.77-0.079-5.946,2.131-7.858
		c1.746-1.516,3.7-0.103,4.741,1.461c0.469-0.896,1.023-1.504,1.905-2.167c1.022-0.767,1.619,0.055,2.544-0.475
		c1.912-1.102,2.604-3.269,4.979-3.725c2.344-0.457,3.348,1.667,3.286,3.567c0.572-0.207,1.199-0.42,1.832-0.597
		c-0.322-1.351-0.285-2.653,0.822-3.896c1.083-1.217,1.996-1.004,2.879-0.201c0.286-2.976,1.188-8.533,4.157-7.718
		c0.354,0.098,0.682,0.335,0.853,0.669c0.669,1.321,0.614-0.347,0.657-1.077c0.078-1.254,1.174-2.495,2.186-3.11
		c0.845-0.518,1.563,0.122,1.825,0.852c0.231,0.633-0.785,6.068,0.736,4.87c0.761-0.596,1.802,0.255,2.124,0.962
		c0.658,1.418,0.713,2.465,0.549,3.804c1.832-0.943,0.536-5.776,0.341-7.182c-0.226-1.595,0.316-3.421,1.181-4.766
		c2.051-3.184,4.547-2.167,4.984,0.931c1.479-0.633,3.068-1.912,3.994,0.201c0.748,1.705-0.184,3.244-1.298,4.425
		c1.632,0.621,3.068,1.388,1.443,3.427c-0.518,0.646-1.747,0.847-2.41,1.229c-0.183,1.022,0.17,1.309,1.064,0.864
		c0.256-0.055,0.519-0.115,0.773-0.17c2.021-0.445,2.106,1.12,3.366-1.163c0.176-0.329,0.706-0.426,0.955-0.128
		c0.834,1.004,4.133-0.042,5.546,0.53C72.999,32.873,73.309,33.39,73.51,33.999z"/>
</g>
<path fill="#8B5E3C" d="M110.761,60.495c0-0.006,0-0.006,0-0.006l-0.65-2.13L99.464,23.694L73.51,33.999l-1.211,0.481L45.395,45.162
	l-1.12,0.451l-3.285,1.303L14.772,64.427l-0.656,0.438v31.712l64.185,13.599l34.347-14.518V66.624L110.761,60.495z M110.92,94.514
	l-32.796,13.859L15.838,95.178V65.784l25.953-17.335l56.571-22.46l12.558,40.897V94.514z"/>
<path fill="#9D2743" d="M98.362,25.988l-56.571,22.46L15.838,65.784v29.394l62.286,13.195l32.796-13.859V66.886L98.362,25.988z
	 M24.122,94.447l-5.85-1.243v-6.615l5.85,0.322V94.447z M24.122,84.477l-5.85-0.328v-6.854l5.85-0.61V84.477z M24.122,74.233
	l-5.85,0.615v-7.493l5.85-1.613V74.233z M34.598,96.662l-8.042-1.704v-7.912l8.042,0.45V96.662z M34.598,85.056l-8.042-0.445v-8.18
	l8.042-0.841V85.056z M34.598,73.137l-8.042,0.84v-8.912l8.042-2.222V73.137z M46.314,99.146l-9.282-1.965v-9.552l9.282,0.519
	V99.146z M46.314,85.706l-9.282-0.512v-9.86l9.282-0.974V85.706z M46.314,71.914l-9.282,0.968V62.168l9.282-2.563V71.914z
	 M60.679,102.183l-11.93-2.525V88.281l11.93,0.662V102.183z M60.679,86.503l-11.93-0.656V74.104l11.93-1.247V86.503z M60.679,70.41
	l-11.93,1.248V58.931l11.93-3.299V70.41z M76.784,105.599l-13.67-2.899V89.084l13.67,0.755V105.599z M76.784,87.398l-13.67-0.755
	V72.602l13.67-1.431V87.398z M76.784,68.725l-13.67,1.43V54.962l13.67-3.78V68.725z M77.339,48.503L23.995,63.252l18.819-12.587
	l50.44-20.032L77.339,48.503z M96.366,30.803v17.914c-0.701,0.17-1.358,0.523-1.961,1.046L89.591,38.4L96.366,30.803z
	 M91.472,100.083l-12.252,5.18V89.778l12.252-1.351V100.083z M91.472,85.975L79.22,87.325V71.317l12.252,2.563V85.975z
	 M91.472,71.39L79.22,68.828V51.645l12.252,6.756V71.39z M91.612,55.698l-11.687-6.446l7.876-8.844l4.912,11.601
	C92.172,53.093,91.794,54.353,91.612,55.698z M100.754,96.164l-6.848,2.891V57.683c0-1.875,0.438-3.688,1.206-4.985
	c0.639-1.065,1.442-1.68,2.216-1.68c0.054,0,0.115,0.006,0.14,0.006c1.504,0.141,2.879,2.416,3.207,5.302
	c0.05,0.432,0.079,0.888,0.079,1.357V96.164z M98.8,48.863V35.728l5.139,16.732l-1.31,1.279
	C101.904,51.304,100.523,49.526,98.8,48.863z M104.747,55.078l2.909,9.471l-4.468-2.465v-4.401c0-0.353-0.012-0.706-0.042-1.047
	L104.747,55.078z M108.484,92.895l-5.296,2.239v-8.01l5.296-0.583V92.895z M108.484,84.088l-5.296,0.584V76.32l5.296,1.107V84.088z
	 M108.484,74.939l-5.296-1.108v-8.966l5.296,2.922V74.939z"/>
<path fill="#DFBE75" d="M100.675,56.326c-0.328-2.886-1.703-5.162-3.207-5.302c-0.025,0-0.086-0.006-0.14-0.006
	c-0.774,0-1.577,0.615-2.216,1.68c-0.768,1.296-1.206,3.11-1.206,4.985v41.372l6.848-2.891V57.683
	C100.754,57.214,100.725,56.757,100.675,56.326z M95.021,63.1l1.783,0.81v17.627l-1.783-0.024V63.1z M96.858,95.548l-1.838,0.616
	V83.966l1.838-0.098V95.548z M95.733,58.054c0-2.198,0.827-3.981,1.85-3.981s1.851,1.783,1.851,3.981c0,2.197-0.828,3.98-1.851,3.98
	S95.733,60.251,95.733,58.054z M99.848,94.452l-1.717,0.61V83.831l1.717-0.091V94.452z M99.908,81.585l-1.777-0.023V64.512
	l1.777,0.803V81.585z"/>
<polygon fill="#9D2743" points="96.804,63.91 96.804,81.537 95.021,81.513 95.021,63.1 "/>
<polygon fill="#9D2743" points="99.908,65.315 99.908,81.585 98.131,81.562 98.131,64.512 "/>
<polygon fill="#9D2743" points="99.848,83.74 99.848,94.452 98.131,95.063 98.131,83.831 "/>
<ellipse fill="#9D2743" cx="97.583" cy="58.054" rx="1.85" ry="3.98"/>
<polygon fill="#9D2743" points="96.858,83.868 96.858,95.548 95.021,96.164 95.021,83.966 "/>
<path fill="#85BB45" d="M14.116,73.849v18.394c-2.131-2.386-3.44-5.563-4.561-8.497c-0.279-0.718-0.511-1.448-0.748-2.179
	c-0.127-0.413-0.798-4.03,1.018-1.57c0.973,1.314,1.271,3.038,2.27,4.382c0.256,0.348,0.901,0.45,0.961-0.115
	c0.433-3.968-1.241-7.4-2.532-11.053c-0.377-1.065-0.62-2.161-0.761-3.287c-0.242-1.954,1.613,0.645,1.656,0.694
	c0.729,0.949,1.381,1.96,2.045,2.958C13.604,73.788,13.89,73.903,14.116,73.849z"/>
<path fill="#006838" d="M9.763,69.923c0.141,1.126,0.384,2.222,0.761,3.287c1.291,3.653,2.965,7.085,2.532,11.053
	c-0.06,0.565-0.705,0.463-0.961,0.115c-0.998-1.344-1.297-3.067-2.27-4.382c-1.815-2.46-1.145,1.157-1.018,1.57
	c0.237,0.73,0.469,1.461,0.748,2.179c1.12,2.935,2.43,6.111,4.561,8.497v1.491c-3.58-3.438-6.495-9.836-6.885-14.717
	c-0.067-0.84,0.535-2.105,1.57-1.425c1.783,1.182,2.349,2.982,3.231,4.717c-0.157-3.432-1.893-6.366-2.793-9.707
	c-0.336-1.248-1.194-3.518-0.195-4.668c1.005-1.145,3.147,1.79,4.389,3.682c0.019-1.242,0.007-2.44,0.56-3.64
	c0.03-0.067,0.073-0.122,0.123-0.159v6.032c-0.227,0.054-0.512-0.061-0.652-0.273c-0.664-0.999-1.315-2.009-2.045-2.958
	C11.376,70.568,9.521,67.969,9.763,69.923z"/>
<path fill="#849547" d="M120.828,87.52c-0.146,1.492-1.138,2.849-2.051,3.969c-1.516,1.862-3.859,3.195-6.13,2.795V66.624
	l-1.887-6.129c0-0.006,0-0.006,0-0.006c0.268-1.735,0.024-3.519,0.396-5.277c0.706-3.317,0.768-1.759,0.742-0.006
	c-0.029,1.783-0.079,3.536,0.08,5.319c0.03,0.329,0.286,0.828,0.688,0.608c2.732-1.473,2.118,2.076,1.844,3.677
	c-0.249,1.497-0.407,2.867-0.328,4.389c0.024,0.396,0.597,1.035,0.841,0.414c0.248-0.633,1.345-3.074,1.125-0.785
	c-0.158,1.601-0.712,3.141-1.041,4.711c-0.444,2.093-0.627,4.547,0.213,6.55c0.092,0.213,0.378,0.474,0.615,0.298
	c1.199-0.9,1.547-2.271,1.905-3.67c0.262-0.999,0.979-3.129,0.748-0.896c-0.055,0.554-0.188,1.108-0.286,1.656
	c-0.613,3.287-1.648,6.951-1.217,10.31c0.274,2.125,1.638,1.389,2.532,0.129C120.001,87.38,121.047,85.292,120.828,87.52z"/>
<path fill="#006838" d="M120.688,90.648c-1.686,2.764-4.839,5.453-8.041,4.858v-1.224c2.271,0.4,4.614-0.933,6.13-2.795
	c0.913-1.12,1.905-2.477,2.051-3.969c0.219-2.228-0.827-0.14-1.211,0.396c-0.895,1.26-2.258,1.996-2.532-0.129
	c-0.432-3.359,0.604-7.023,1.217-10.31c0.098-0.548,0.231-1.102,0.286-1.656c0.231-2.234-0.486-0.103-0.748,0.896
	c-0.358,1.399-0.706,2.77-1.905,3.67c-0.237,0.176-0.523-0.085-0.615-0.298c-0.84-2.003-0.656-4.457-0.213-6.55
	c0.329-1.57,0.883-3.11,1.041-4.711c0.22-2.289-0.876,0.152-1.125,0.785c-0.244,0.621-0.816-0.018-0.841-0.414
	c-0.079-1.522,0.079-2.892,0.329-4.389c0.273-1.601,0.889-5.149-1.845-3.677c-0.401,0.22-0.657-0.279-0.688-0.608
	c-0.159-1.783-0.109-3.536-0.079-5.319c0.024-1.753-0.037-3.312-0.743,0.006c-0.371,1.759-0.128,3.542-0.396,5.277l-0.65-2.13
	c0.078-1.541,0.006-3.117,0.474-4.632c0.256-0.815,0.438-2.173,1.346-2.538c0.158-0.066,0.354,0.091,0.433,0.207
	c0.565,0.798,0.45,1.948,0.438,2.874c-0.03,1.832-0.104,3.652,0,5.479c3.579-1.479,3.057,3.195,2.581,6.658
	c0.237-0.273,0.505-0.396,0.785-0.213c1.047,0.676,1.004,1.918,0.846,3.068c-0.249,1.82-0.9,3.548-1.132,5.369
	c-0.134,1.028-0.311,2.094-0.226,3.134c0.597,0.604,0.926,0.517,0.979-0.262c0.299-0.98,0.615-4.303,1.942-4.578
	c0.177-0.036,0.335,0.074,0.433,0.214c1.381,2.021-0.08,5.904-0.438,8.029c-0.347,2.032-0.913,4.339-0.646,6.408
	c0.062,0.487,2.271-2.269,2.63-2.513c0.779-0.524,1.113,0.858,1.175,1.296C121.93,87.824,121.449,89.414,120.688,90.648z"/>
<path fill="#85BB45" d="M72.299,34.48L45.395,45.162c0.092-2.039-2.1-3.226-4.54-3.573c0.092-2.672-1.862-3-4.042-2.605
	c-0.036-0.104-0.062-0.207-0.091-0.31c-0.895-3.366,1.576-3.025,2.684-1.619c0.354,0.45,1.011,0.036,1.036-0.432
	c0.108-1.856,0.267-3.664,0.82-5.454c0.146-0.462,1.632-3.299,2.356-1.778c0.158,0.323,0.377,0.481,0.663,0.676
	c1.516,1.065,1.887-1.918,1.918-2.581c0.023-0.494,1.722-3.378,1.631-1.504c-0.036,0.785-0.219,1.601-0.329,2.386
	c-0.085,0.609-0.213,1.819,0.298,2.294c0.445,0.402,1.163,1.132,1.87,0.663c0.352-0.237,0.438-0.298,0.699-0.627
	c0.499,0.451,0.804,1.017,0.9,1.705c0.074,0.876,0.025,1.753-0.151,2.611c-0.062,0.383,0.157,0.767,0.584,0.773
	c2.568,0.013,2.903-2.374,2.823-4.48c-0.06-1.545-0.432-3.062-0.603-4.596c-0.103-0.992,0.365-2.112,0.743-2.989
	c0.968-2.258,3.068-1.99,3.122,0.5c0.013,0.402,0.384,0.676,0.773,0.584c0.591-0.134,3.141-1.698,3.299-0.31
	c0.177,1.595-0.724,2.374-1.759,3.323c-0.364,0.34-0.133,0.864,0.269,1.016c0.31,0.141,0.633,0.244,0.968,0.317
	c1.612,0.444,0.383,1.759-0.543,2.142c-0.693,0.292-1.241,0.584-1.789,1.09c-0.523,0.487-0.584,1.838,0.146,2.191
	c1.576,0.768,3.274-0.176,4.943,0.122c1.351,0.243,1.813-0.14,2.415-1.169c0.47,0.414,0.986,0.627,1.741,0.42
	C69.432,33.634,71.988,32.77,72.299,34.48z"/>
<path fill="#5B9853" d="M44.274,45.612l-3.286,1.303L14.772,64.427c-0.279,0.031-0.56,0.067-0.853,0.116
	c-1.637,0.256-2.866-1.881-2.038-3.269c0.535-0.895,1.119-1.503,1.212-2.568c0.047-0.573-0.555-1.169-0.896-1.534
	c-1.376-1.509-3.178-1.205-1.692-5.32c0.518-1.43,2.531-3.012,3.944-1.43c0.269,0.298,0.621,0.165,0.621-0.237
	c-0.007-1.449,0-2.874,0.146-4.315c0.304-2.91,3.756-6.294,5.618-2.106c0.098,0.213,0.536,0.718,0.73,0.28
	c0.548-1.242,1.582-2.879,3.201-2.879c0.853,0,0.956,0.134,1.772-0.334c0.547-0.323,0.943-1.151,1.418-1.595
	c0.353-0.347,0.718-0.682,1.101-1.004c1.571-1.4,2.837-0.706,3.786,2.081c-0.103,0.305,0.098,1.181,0.591,0.986
	c0.463-0.176,1.442-0.608,2.514-0.949c0.391-0.127,0.791-0.237,1.188-0.323c1.655-0.347,3.128-0.183,2.824,1.771
	c-0.05,0.329,0.134,0.858,0.523,0.889C42.188,42.837,44.902,43.568,44.274,45.612z"/>
<polygon fill="none" stroke="#FFFFFF" stroke-width="1.5" stroke-miterlimit="10" points="78.124,108.373 110.92,94.514 
	110.92,66.886 98.362,25.988 41.791,48.449 15.838,65.784 15.838,95.178 "/>
</svg>
